# xmcd
#
# Track frame offsets:
#	150
#	9284
#	21092
#	31875
#	43364
#	51505
#	62931
#	71696
#	82519
#	94043
#	104070
#	114951
#
# Disc length: 1656 seconds
#
# Revision: 1
# Processed by: cddbd v1.5.2PL0 Copyright (c) Steve Scherf et al.
# Submitted via: audiograbber 1.83.01
#
DISCID=9806760c
DTITLE=Porter Wagoner - A Slice Of Life: Happy 'N Sad Songs
DYEAR=1962
DGENRE=Country
TTITLE0=Uncle Pen
TTITLE1=One Way Ticket To The Blues
TTITLE2=My Name Is Mud
TTITLE3=I Thought I Heard You Calling My Name
TTITLE4=Tennessee Border
TTITLE5=I Went Out Of My Way
TTITLE6=Sugarfoor Rag
TTITLE7=Cryin' Loud
TTITLE8=Misery Loves Company
TTITLE9=I Gotta Find Someone
TTITLE10=Take Good Care Of You
TTITLE11=I Wonder Where You Are Tonight
EXTD=
EXTT0=
EXTT1=
EXTT2=
EXTT3=
EXTT4=
EXTT5=
EXTT6=
EXTT7=
EXTT8=
EXTT9=
EXTT10=
EXTT11=
PLAYORDER=
